<?xml version="1.0" standalone="no"?>
<!DOCTYPE svg PUBLIC "-//W3C//DTD SVG 20010904//EN"
 "http://www.w3.org/TR/2001/REC-SVG-20010904/DTD/svg10.dtd">
<svg version="1.0" xmlns="http://www.w3.org/2000/svg"
 width="416.000000pt" height="416.000000pt" viewBox="0 0 416.000000 416.000000"
 preserveAspectRatio="xMidYMid meet">

<g transform="translate(0.000000,416.000000) scale(0.100000,-0.100000)"
fill="#000000" stroke="none">
<path d="M611 3316 c-26 -15 -50 -51 -51 -79 0 -30 27 -72 55 -85 17 -8 89
-12 211 -12 178 0 186 -1 207 -22 19 -19 56 -166 216 -838 107 -448 200 -828
208 -844 14 -26 13 -30 -2 -38 -42 -24 -87 -74 -112 -126 -37 -75 -39 -182 -5
-258 29 -64 92 -126 157 -156 68 -31 180 -32 246 -1 139 63 207 203 176 361
l-9 42 342 0 342 0 -9 -42 c-30 -153 34 -291 165 -355 76 -37 181 -39 258 -5
64 29 126 92 156 157 34 76 32 181 -5 257 -44 91 -123 148 -228 168 -30 6
-298 10 -651 10 l-599 0 -24 24 c-22 22 -36 58 -51 134 l-7 32 736 0 736 0 26
23 c23 20 39 79 162 593 91 383 134 580 129 597 -9 38 -43 65 -90 72 -23 3
-483 5 -1024 3 l-983 -3 -6 25 c-30 134 -55 217 -78 255 -29 50 -94 98 -155
115 -55 15 -410 12 -439 -4z m1213 -623 c3 -27 8 -82 11 -123 3 -41 8 -101 11
-132 l6 -58 -215 0 c-197 0 -216 2 -221 18 -13 44 -76 316 -76 328 0 12 42 14
239 14 l239 0 6 -47z m676 38 c0 -22 -21 -269 -26 -308 l-5 -43 -214 0 -213 0
-6 48 c-3 26 -8 85 -11 132 -3 47 -8 106 -11 133 l-6 47 246 0 c148 0 246 -4
246 -9z m670 -8 c0 -10 -18 -90 -39 -178 l-38 -160 -217 -3 -218 -2 6 37 c3
21 8 79 11 128 3 50 8 114 12 143 l5 52 239 0 c221 0 239 -1 239 -17z m-1293
-673 c6 -74 12 -154 12 -177 l1 -43 -170 0 c-168 0 -170 0 -175 23 -3 12 -21
88 -40 169 -19 80 -35 151 -35 157 0 8 57 11 198 9 l197 -3 12 -135z m574 136
c3 -3 -1 -74 -8 -158 -6 -84 -12 -163 -12 -175 -1 -23 -1 -23 -175 -23 l-173
0 -6 78 c-4 42 -10 123 -13 180 l-7 102 195 0 c107 0 197 -2 199 -4z m589 -10
c0 -13 -64 -288 -76 -328 -5 -16 -22 -18 -176 -18 l-171 0 6 73 c4 39 9 115
13 167 3 52 7 101 9 108 7 19 395 17 395 -2z m-1352 -942 c32 -21 55 -79 47
-120 -8 -46 -65 -94 -111 -94 -48 0 -90 26 -110 68 -52 109 72 213 174 146z
m1235 12 c45 -19 68 -48 74 -94 10 -76 -53 -139 -129 -129 -118 16 -143 175
-35 222 41 18 50 18 90 1z"/>
</g>
</svg>
