<?xml version="1.0" standalone="no"?>
<!DOCTYPE svg PUBLIC "-//W3C//DTD SVG 20010904//EN"
 "http://www.w3.org/TR/2001/REC-SVG-20010904/DTD/svg10.dtd">
<svg version="1.0" xmlns="http://www.w3.org/2000/svg"
 width="270.000000pt" height="168.000000pt" viewBox="0 0 270.000000 168.000000"
 preserveAspectRatio="xMidYMid meet">

<g transform="translate(0.000000,168.000000) scale(0.100000,-0.100000)"
fill="#000000" stroke="none">
<path d="M1141 1625 c-88 -20 -146 -39 -296 -100 -152 -62 -183 -72 -289 -89
l-79 -14 -68 45 c-156 100 -266 98 -327 -6 -25 -43 -27 -53 -26 -161 0 -102 4
-125 32 -207 99 -289 349 -625 584 -785 89 -60 234 -125 345 -156 90 -24 113
-26 293 -26 179 0 203 2 292 26 178 48 371 156 491 273 290 284 488 664 475
910 -11 215 -159 267 -364 128 l-60 -41 -82 13 c-100 16 -122 23 -289 91 -213
86 -287 105 -438 110 -91 3 -149 -1 -194 -11z m-864 -156 c15 -5 56 -28 91
-51 l62 -40 0 -369 c0 -203 -3 -369 -7 -368 -20 1 -151 196 -204 300 -164 327
-134 601 58 528z m2188 -13 c84 -84 44 -328 -92 -564 -55 -95 -164 -252 -175
-252 -5 0 -8 166 -8 369 l0 369 63 40 c77 50 102 61 150 61 27 1 45 -6 62 -23z"/>
</g>
</svg>
